<mxfile host="app.diagrams.net" modified="2021-03-20T14:06:47.768Z" agent="5.0 (Windows NT 10.0; Win64; x64) AppleWebKit/537.36 (KHTML, like Gecko) Chrome/89.0.4389.82 Safari/537.36" etag="-iqaNHDeO9mbIa8Sstma" version="14.4.8" type="github">
  <diagram name="Page-1" id="efa7a0a1-bf9b-a30e-e6df-94a7791c09e9">
    <mxGraphModel dx="1422" dy="706" grid="1" gridSize="10" guides="1" tooltips="1" connect="1" arrows="1" fold="1" page="1" pageScale="1" pageWidth="826" pageHeight="1169" background="#ffffff" math="0" shadow="0">
      <root>
        <mxCell id="0" />
        <mxCell id="1" parent="0" />
        <mxCell id="owQJNBBE0c2wY_kpn1Dt-116" value="" style="edgeStyle=orthogonalEdgeStyle;rounded=0;orthogonalLoop=1;jettySize=auto;html=1;" edge="1" parent="1" source="owQJNBBE0c2wY_kpn1Dt-114" target="owQJNBBE0c2wY_kpn1Dt-115">
          <mxGeometry relative="1" as="geometry" />
        </mxCell>
        <mxCell id="owQJNBBE0c2wY_kpn1Dt-114" value="&lt;font style=&quot;font-size: 14px&quot;&gt;&lt;b&gt;头指针&lt;/b&gt;&lt;/font&gt;" style="rounded=1;whiteSpace=wrap;html=1;fillColor=#d5e8d4;strokeColor=#82b366;" vertex="1" parent="1">
          <mxGeometry x="160" y="200" width="80" height="40" as="geometry" />
        </mxCell>
        <mxCell id="owQJNBBE0c2wY_kpn1Dt-119" value="" style="group" vertex="1" connectable="0" parent="1">
          <mxGeometry x="279" y="160" width="80" height="80" as="geometry" />
        </mxCell>
        <mxCell id="owQJNBBE0c2wY_kpn1Dt-115" value="&lt;font style=&quot;font-size: 14px&quot;&gt;&lt;b&gt;数据域&lt;/b&gt;&lt;/font&gt;" style="rounded=1;whiteSpace=wrap;html=1;fillColor=#647687;strokeColor=#314354;fontColor=#ffffff;" vertex="1" parent="owQJNBBE0c2wY_kpn1Dt-119">
          <mxGeometry width="80" height="40" as="geometry" />
        </mxCell>
        <mxCell id="owQJNBBE0c2wY_kpn1Dt-117" value="&lt;font style=&quot;font-size: 14px&quot;&gt;&lt;b&gt;指针域&lt;/b&gt;&lt;/font&gt;" style="rounded=1;whiteSpace=wrap;html=1;fillColor=#647687;strokeColor=#314354;fontColor=#ffffff;" vertex="1" parent="owQJNBBE0c2wY_kpn1Dt-119">
          <mxGeometry y="40" width="80" height="40" as="geometry" />
        </mxCell>
        <mxCell id="owQJNBBE0c2wY_kpn1Dt-122" value="" style="group" vertex="1" connectable="0" parent="1">
          <mxGeometry x="399" y="160" width="80" height="80" as="geometry" />
        </mxCell>
        <mxCell id="owQJNBBE0c2wY_kpn1Dt-123" value="&lt;font style=&quot;font-size: 14px&quot;&gt;&lt;b&gt;数据域&lt;/b&gt;&lt;/font&gt;" style="rounded=1;whiteSpace=wrap;html=1;fillColor=#647687;strokeColor=#314354;fontColor=#ffffff;" vertex="1" parent="owQJNBBE0c2wY_kpn1Dt-122">
          <mxGeometry width="80" height="40" as="geometry" />
        </mxCell>
        <mxCell id="owQJNBBE0c2wY_kpn1Dt-124" value="&lt;font style=&quot;font-size: 14px&quot;&gt;&lt;b&gt;指针域&lt;/b&gt;&lt;/font&gt;" style="rounded=1;whiteSpace=wrap;html=1;fillColor=#647687;strokeColor=#314354;fontColor=#ffffff;" vertex="1" parent="owQJNBBE0c2wY_kpn1Dt-122">
          <mxGeometry y="40" width="80" height="40" as="geometry" />
        </mxCell>
        <mxCell id="owQJNBBE0c2wY_kpn1Dt-125" style="edgeStyle=orthogonalEdgeStyle;rounded=0;orthogonalLoop=1;jettySize=auto;html=1;exitX=1;exitY=0.5;exitDx=0;exitDy=0;entryX=0;entryY=0.5;entryDx=0;entryDy=0;" edge="1" parent="1" source="owQJNBBE0c2wY_kpn1Dt-117" target="owQJNBBE0c2wY_kpn1Dt-123">
          <mxGeometry relative="1" as="geometry" />
        </mxCell>
        <mxCell id="owQJNBBE0c2wY_kpn1Dt-126" value="" style="group" vertex="1" connectable="0" parent="1">
          <mxGeometry x="520" y="160" width="80" height="80" as="geometry" />
        </mxCell>
        <mxCell id="owQJNBBE0c2wY_kpn1Dt-127" value="&lt;font style=&quot;font-size: 14px&quot;&gt;&lt;b&gt;数据域&lt;/b&gt;&lt;/font&gt;" style="rounded=1;whiteSpace=wrap;html=1;fillColor=#647687;strokeColor=#314354;fontColor=#ffffff;" vertex="1" parent="owQJNBBE0c2wY_kpn1Dt-126">
          <mxGeometry width="80" height="40" as="geometry" />
        </mxCell>
        <mxCell id="owQJNBBE0c2wY_kpn1Dt-128" value="&lt;font style=&quot;font-size: 14px&quot;&gt;&lt;b&gt;指针域&lt;/b&gt;&lt;/font&gt;" style="rounded=1;whiteSpace=wrap;html=1;fillColor=#647687;strokeColor=#314354;fontColor=#ffffff;" vertex="1" parent="owQJNBBE0c2wY_kpn1Dt-126">
          <mxGeometry y="40" width="80" height="40" as="geometry" />
        </mxCell>
        <mxCell id="owQJNBBE0c2wY_kpn1Dt-130" style="edgeStyle=orthogonalEdgeStyle;rounded=0;orthogonalLoop=1;jettySize=auto;html=1;exitX=1;exitY=0.5;exitDx=0;exitDy=0;entryX=0;entryY=0.5;entryDx=0;entryDy=0;" edge="1" parent="1" source="owQJNBBE0c2wY_kpn1Dt-124" target="owQJNBBE0c2wY_kpn1Dt-127">
          <mxGeometry relative="1" as="geometry" />
        </mxCell>
        <mxCell id="owQJNBBE0c2wY_kpn1Dt-131" value="" style="group" vertex="1" connectable="0" parent="1">
          <mxGeometry x="641" y="160" width="80" height="80" as="geometry" />
        </mxCell>
        <mxCell id="owQJNBBE0c2wY_kpn1Dt-132" value="&lt;font style=&quot;font-size: 14px&quot;&gt;&lt;b&gt;数据域&lt;/b&gt;&lt;/font&gt;" style="rounded=1;whiteSpace=wrap;html=1;fillColor=#647687;strokeColor=#314354;fontColor=#ffffff;" vertex="1" parent="owQJNBBE0c2wY_kpn1Dt-131">
          <mxGeometry width="80" height="40" as="geometry" />
        </mxCell>
        <mxCell id="owQJNBBE0c2wY_kpn1Dt-133" value="&lt;font style=&quot;font-size: 14px&quot;&gt;&lt;b&gt;指针域&lt;/b&gt;&lt;/font&gt;" style="rounded=1;whiteSpace=wrap;html=1;fillColor=#647687;strokeColor=#314354;fontColor=#ffffff;" vertex="1" parent="owQJNBBE0c2wY_kpn1Dt-131">
          <mxGeometry y="40" width="80" height="40" as="geometry" />
        </mxCell>
        <mxCell id="owQJNBBE0c2wY_kpn1Dt-134" style="edgeStyle=orthogonalEdgeStyle;rounded=0;orthogonalLoop=1;jettySize=auto;html=1;exitX=1;exitY=0.5;exitDx=0;exitDy=0;entryX=0;entryY=0.5;entryDx=0;entryDy=0;" edge="1" parent="1" source="owQJNBBE0c2wY_kpn1Dt-128" target="owQJNBBE0c2wY_kpn1Dt-132">
          <mxGeometry relative="1" as="geometry" />
        </mxCell>
      </root>
    </mxGraphModel>
  </diagram>
</mxfile>
